#!OML:ASF I:\Actors\actors\Patient Classification 1\Patient 1\Session 1\Subject1.ASF
:FULLY-SPECIFIED
:DEGREES
797
root 0.875677 17.5101 8.77992 7.3507 -0.94803 -8.05478
lowerback -1.77339 0.765114 6.87961
upperback -10.8687 1.50161 2.15005
thorax -10.5236 0.230053 -1.62979
lowerneck -14.9882 -2.96104 -0.714475
upperneck 27.7823 -5.30906 3.9736
head 11.6929 -1.97728 0.825185
rclavicle 1.28216e-014 -3.3197e-014
rhumerus -5.142 37.8906 -86.7323
rradius 125.298
rwrist 3.87717
rhand -15.9558 312.87
rfingers 7.12502
rthumb 10.2428 -76.8602
lclavicle 1.28216e-014 -3.3197e-014
lhumerus -13.2885 -40.7454 93.4137
lradius 120.415
lwrist 5.61199
lhand -43.4731 -38.3227
lfingers 7.12502
lthumb -16.3139 351.011
rfemur -5.34921 22.8074 25.1919
rtibia 9.80558
rfoot -13.9712 -18.9975
rtoes -1.07967
lfemur 3.43274 -33.6796 -10.9642
ltibia -1.53256
lfoot -12.258 41.526
ltoes -1.55276
798
root 0.874137 17.526 8.78776 7.63349 -0.76002 -7.97832
lowerback -2.0757 0.754848 6.817
upperback -11.0411 1.46469 2.11499
thorax -10.5433 0.212598 -1.62488
lowerneck -14.8579 -2.96163 -0.825067
upperneck 28.0228 -5.3423 4.13645
head 11.7701 -1.98039 0.902297
rclavicle -7.1314e-015 4.96962e-015
rhumerus -3.33826 35.0839 -83.1941
rradius 126.322
rwrist 4.20469
rhand -15.9774 312.627
rfingers 7.12502
rthumb 10.2219 -77.1049
lclavicle -7.1314e-015 4.96962e-015
lhumerus -10.7631 -38.08 89.3145
lradius 121.398
lwrist 5.37425
lhand -43.3293 -37.1172
lfingers 7.12502
lthumb -16.1754 352.228
rfemur -5.47232 22.9984 25.0346
rtibia 9.51514
rfoot -13.8632 -19.3589
rtoes -0.96126
lfemur 3.05169 -33.8968 -10.8245
ltibia -1.57523
lfoot -12.2049 41.6081
ltoes -1.52122
799
root 0.873518 17.5376 8.79745 7.81933 -0.587064 -7.8696
lowerback -2.09964 0.779345 6.81746
upperback -11.2847 1.50087 1.99074
thorax -10.8053 0.211354 -1.75876
lowerneck -14.6522 -3.0161 -0.932289
upperneck 28.3074 -5.47821 4.3641
head 11.8555 -2.02164 0.989605
rclavicle 7.42958e-015 -1.47101e-014
rhumerus -2.57194 32.2259 -80.3731
rradius 126.908
rwrist 4.94637
rhand -15.9073 313.151
rfingers 7.12502
rthumb 10.2895 -76.5768
lclavicle 7.42958e-015 -1.47101e-014
lhumerus -8.98141 -35.4877 85.9121
lradius 122.122
lwrist 5.26084
lhand -43.1293 -35.334
lfingers 7.12502
lthumb -15.9829 354.027
rfemur -5.4793 23.0977 24.8708
rtibia 9.22386
rfoot -13.8203 -19.6274
rtoes -0.605203
lfemur 2.84292 -34.1869 -10.84
ltibia -1.62264
lfoot -12.1971 41.7618
ltoes -1.57589
800
root 0.87418 17.5438 8.80493 7.87238 -0.480339 -7.82925
lowerback -1.99297 0.811972 6.93157
upperback -11.4623 1.56028 1.86246
thorax -11.0688 0.210772 -1.96437
lowerneck -14.3941 -3.06615 -0.790004
upperneck 28.5282 -5.5936 4.33113
head 11.8882 -2.06248 0.94105
rclavicle -3.97569e-016 2.88238e-015
rhumerus -2.92525 29.6698 -78.4032
rradius 127.122
rwrist 5.72363
rhand -15.802 314.969
rfingers 7.12502
rthumb 10.3912 -74.7542
lclavicle -3.97569e-016 2.88238e-015
lhumerus -7.7078 -33.1025 83.2294
lradius 122.627
lwrist 5.54756
lhand -43.0945 -34.6741
lfingers 7.12502
lthumb -15.9493 354.689
rfemur -5.37233 23.2215 24.829
rtibia 8.99524
rfoot -13.851 -19.8191
rtoes -0.109959
lfemur 2.82155 -34.3647 -10.8744
ltibia -1.68272
lfoot -12.2105 41.8615
ltoes -1.56921
801
root 0.875932 17.5455 8.8108 7.81683 -0.421349 -7.80612
lowerback -2.36744 0.730661 6.82082
upperback -11.1784 1.4044 1.99525
thorax -10.5288 0.174415 -1.74688
lowerneck -14.5889 -3.0148 -0.801702
upperneck 28.6389 -5.45613 4.11236
head 11.9593 -2.02423 0.879072
rclavicle 2.01269e-015 -1.09332e-014
rhumerus -1.76942 28.4785 -76.028
rradius 127.399
rwrist 5.87591
rhand -15.5465 315.601
rfingers 7.12502
rthumb 10.6376 -74.1093
lclavicle 2.01269e-015 -1.09332e-014
lhumerus -6.27476 -30.4183 81.1027
lradius 122.879
lwrist 5.50834
lhand -42.8886 -33.9484
lfingers 7.12502
lthumb -15.7511 355.431
rfemur -5.16681 23.32 24.8496
rtibia 8.80658
rfoot -13.8964 -19.918
rtoes 0.187896
lfemur 2.91791 -34.4422 -10.9627
ltibia -1.70167
lfoot -12.2773 41.8814
ltoes -1.32655
802
root 0.877482 17.5425 8.81621 7.69901 -0.394709 -7.81922
lowerback -2.31763 0.678185 6.89812
upperback -11.1439 1.34186 2.0301
thorax -10.5254 0.139193 -1.74896
lowerneck -14.501 -3.01095 -0.919656
upperneck 28.8516 -5.42017 4.07731
head 12.0261 -2.02309 0.893556
rclavicle 9.69075e-016 -8.64713e-015
rhumerus -1.6842 28.1635 -74.8703
rradius 127.702
rwrist 5.79817
rhand -15.4377 315.664
rfingers 7.12502
rthumb 10.7426 -74.0412
lclavicle 9.69075e-016 -8.64713e-015
lhumerus -6.24929 -29.1578 80.1297
lradius 123.291
lwrist 6.60939
lhand -43.4685 -33.497
lfingers 7.12502
lthumb -16.3095 355.837
rfemur -4.93462 23.3303 24.9361
rtibia 8.6883
rfoot -13.9112 -19.928
rtoes 0.43228
lfemur 3.06099 -34.3734 -11.0328
ltibia -1.67331
lfoot -12.2754 41.7716
ltoes -1.33649
